<svg width="118" height="18" viewBox="0 0 118 18" fill="none" xmlns="http://www.w3.org/2000/svg">
<path d="M3.656 17.552C2.792 17.552 2.13067 17.3493 1.672 16.944C1.21333 16.5387 0.984 16.0267 0.984 15.408C0.984 14.8 1.208 14.1387 1.656 13.424C2.104 12.7093 2.78667 12.0267 3.704 11.376C4.20533 11.0133 4.696 10.7413 5.176 10.56C5.66667 10.368 6.10933 10.256 6.504 10.224H6.536C6.62133 10.224 6.68533 10.24 6.728 10.272C6.77067 10.304 6.73867 10.3307 6.632 10.352C6.22667 10.3947 5.79467 10.5333 5.336 10.768C4.888 10.992 4.44533 11.264 4.008 11.584C3.18667 12.2027 2.584 12.8053 2.2 13.392C1.816 13.9787 1.624 14.5067 1.624 14.976C1.624 15.5307 1.864 15.9733 2.344 16.304C2.824 16.6453 3.50133 16.816 4.376 16.816C5.48533 16.816 6.62667 16.6133 7.8 16.208C8.97333 15.8133 10.1627 15.2693 11.368 14.576C12.5733 13.8827 13.7627 13.104 14.936 12.24C14.52 12.1653 14.0827 12.08 13.624 11.984C13.1653 11.8773 12.808 11.744 12.552 11.584C12.2533 11.4133 12.104 11.2267 12.104 11.024C12.104 10.928 12.1307 10.848 12.184 10.784C12.312 10.624 12.5413 10.544 12.872 10.544C13.1493 10.544 13.464 10.592 13.816 10.688C14.168 10.784 14.5253 10.9067 14.888 11.056C15.2507 11.2053 15.5813 11.3653 15.88 11.536C16.712 10.8747 17.528 10.192 18.328 9.488C19.1387 8.784 19.9173 8.07467 20.664 7.36C20.792 7.11467 20.92 6.87467 21.048 6.64C21.1867 6.39467 21.3253 6.16 21.464 5.936C21.5813 5.744 21.7253 5.49867 21.896 5.2C22.0773 4.90133 22.2853 4.60267 22.52 4.304C22.7547 3.99467 23 3.73333 23.256 3.52C23.5227 3.296 23.7893 3.168 24.056 3.136C24.2267 3.11467 24.3493 3.152 24.424 3.248C24.4987 3.344 24.536 3.45067 24.536 3.568C24.536 3.84533 24.4507 4.10667 24.28 4.352C24.12 4.58667 23.9333 4.81067 23.72 5.024C23.0907 5.64267 22.4133 6.272 21.688 6.912C21.1653 7.78667 20.6853 8.69333 20.248 9.632C19.8213 10.56 19.4853 11.392 19.24 12.128C19.688 12.0853 20.0987 12.016 20.472 11.92C20.856 11.824 21.16 11.6853 21.384 11.504C21.608 11.3227 21.7093 11.088 21.688 10.8V10.784C21.688 10.688 21.7253 10.64 21.8 10.64C21.9173 10.64 21.976 10.7307 21.976 10.912C21.976 11.2 21.8373 11.44 21.56 11.632C21.2827 11.824 20.9307 11.9787 20.504 12.096C20.0773 12.2133 19.6293 12.304 19.16 12.368C19.0853 12.624 19.016 12.8693 18.952 13.104C18.888 13.3387 18.856 13.5627 18.856 13.776C18.856 13.904 18.8667 14.0213 18.888 14.128C18.92 14.2453 18.9413 14.32 18.952 14.352C18.9947 14.5013 18.9413 14.6347 18.792 14.752C18.6427 14.88 18.4933 14.944 18.344 14.944C18.1947 14.944 18.104 14.88 18.072 14.752C18.0613 14.7307 18.056 14.704 18.056 14.672C18.056 14.6507 18.0507 14.6187 18.04 14.576C17.976 14.4267 17.8693 14.24 17.72 14.016C17.5813 13.792 17.432 13.568 17.272 13.344C17.112 13.12 16.9627 12.928 16.824 12.768C16.6853 12.608 16.5893 12.5227 16.536 12.512C16.4613 12.4907 16.2107 12.4427 15.784 12.368C15.7093 12.3573 15.624 12.3467 15.528 12.336C15.4427 12.3147 15.352 12.2987 15.256 12.288C14.264 13.0133 13.2613 13.696 12.248 14.336C11.2453 14.976 10.248 15.536 9.256 16.016C8.264 16.496 7.29333 16.8693 6.344 17.136C5.40533 17.4133 4.50933 17.552 3.656 17.552ZM22.2 6.096C22.712 5.616 23.1973 5.13067 23.656 4.64C23.8053 4.49067 23.9333 4.33067 24.04 4.16C24.1467 3.98933 24.2 3.872 24.2 3.808C24.2 3.776 24.1893 3.76 24.168 3.76C24.1147 3.76 24.0027 3.84533 23.832 4.016C23.5653 4.28267 23.2933 4.59733 23.016 4.96C22.7493 5.312 22.4773 5.69067 22.2 6.096ZM17.752 12.176C17.8693 12.176 17.9867 12.176 18.104 12.176C18.232 12.176 18.36 12.1707 18.488 12.16C18.6693 11.6267 18.9093 11.0187 19.208 10.336C19.5067 9.65333 19.832 8.96533 20.184 8.272C19.544 8.83733 18.8827 9.408 18.2 9.984C17.5173 10.5493 16.8187 11.1093 16.104 11.664C16.2533 11.7387 16.3813 11.8187 16.488 11.904C16.5947 11.9893 16.6853 12.064 16.76 12.128C16.984 12.16 17.3147 12.176 17.752 12.176ZM15.288 11.968L15.544 11.776C15.2133 11.6053 14.8773 11.4667 14.536 11.36C14.1947 11.2533 13.8427 11.1893 13.48 11.168C13.4373 11.1573 13.3947 11.152 13.352 11.152C13.3093 11.152 13.272 11.152 13.24 11.152C13.0587 11.152 12.968 11.1787 12.968 11.232C12.968 11.2747 13.0107 11.328 13.096 11.392C13.192 11.4453 13.2827 11.488 13.368 11.52C13.5813 11.5947 13.8693 11.6747 14.232 11.76C14.6053 11.8453 14.9573 11.9147 15.288 11.968ZM16.04 12.064L15.768 11.904L15.624 12.032C15.7093 12.0427 15.784 12.0533 15.848 12.064C15.9227 12.064 15.9867 12.064 16.04 12.064ZM18.04 13.936C18.0507 13.872 18.0613 13.808 18.072 13.744C18.0827 13.68 18.0933 13.6107 18.104 13.536C18.1467 13.3547 18.1893 13.168 18.232 12.976C18.2853 12.784 18.344 12.6027 18.408 12.432C18.1413 12.4427 17.8907 12.4533 17.656 12.464C17.4213 12.4747 17.224 12.4747 17.064 12.464C17.2133 12.6347 17.3787 12.8533 17.56 13.12C17.752 13.3867 17.912 13.6587 18.04 13.936ZM21.6406 14.496C21.5233 14.496 21.4646 14.432 21.4646 14.304C21.4646 14.1547 21.5393 13.9413 21.6886 13.664C21.838 13.3867 22.0086 13.104 22.2006 12.816C22.3926 12.528 22.5526 12.2933 22.6806 12.112C22.766 11.9947 22.8833 11.8347 23.0326 11.632C23.182 11.4293 23.3366 11.2107 23.4966 10.976C23.6566 10.7307 23.79 10.4907 23.8966 10.256C24.014 10.0213 24.0726 9.81333 24.0726 9.632C24.0726 9.45067 24.014 9.31733 23.8966 9.232C23.79 9.14667 23.7366 9.056 23.7366 8.96C23.7366 8.91733 23.758 8.896 23.8006 8.896C23.854 8.896 23.918 8.92267 23.9926 8.976C24.0673 9.01867 24.1473 9.07733 24.2326 9.152C24.318 9.22667 24.398 9.312 24.4726 9.408C24.5366 9.48267 24.6006 9.568 24.6646 9.664C24.7286 9.76 24.7606 9.872 24.7606 10C24.7606 10.16 24.702 10.336 24.5846 10.528C24.3926 10.8587 24.1686 11.1627 23.9126 11.44C23.6566 11.7173 23.3953 12.0107 23.1286 12.32C22.8406 12.6507 22.5793 12.96 22.3446 13.248C22.1206 13.5253 21.982 13.7013 21.9286 13.776C22.046 13.6373 22.238 13.4293 22.5046 13.152C22.782 12.8747 23.0913 12.5707 23.4326 12.24C23.7846 11.9093 24.1366 11.5947 24.4886 11.296C24.8513 10.9867 25.1873 10.7307 25.4966 10.528C25.806 10.3147 26.0513 10.2027 26.2326 10.192C26.5526 10.16 26.7713 10.1867 26.8886 10.272C27.0166 10.3467 27.086 10.448 27.0966 10.576C27.118 10.704 27.1286 10.832 27.1286 10.96C27.1286 11.0987 27.0966 11.28 27.0326 11.504C26.9686 11.7173 26.8886 11.9413 26.7926 12.176C26.7073 12.4 26.622 12.6027 26.5366 12.784C26.462 12.9653 26.4086 13.0987 26.3766 13.184C26.4726 13.1093 26.606 12.96 26.7766 12.736C26.9473 12.512 27.1286 12.2773 27.3206 12.032C27.5233 11.776 27.7046 11.5787 27.8646 11.44C27.982 11.3333 28.078 11.264 28.1526 11.232C28.238 11.1893 28.302 11.168 28.3446 11.168C28.43 11.168 28.4886 11.2107 28.5206 11.296C28.5526 11.3707 28.574 11.4453 28.5846 11.52C28.6166 11.648 28.654 11.8293 28.6966 12.064C28.7393 12.288 28.8086 12.528 28.9046 12.784C29.0113 13.0293 29.166 13.2427 29.3686 13.424C29.454 13.4987 29.55 13.552 29.6566 13.584C29.7633 13.6053 29.8806 13.616 30.0086 13.616C30.222 13.616 30.4513 13.584 30.6966 13.52C30.942 13.4453 31.1553 13.3653 31.3366 13.28C31.7846 13.056 32.2166 12.7893 32.6326 12.48C33.0593 12.1707 33.4966 11.8347 33.9446 11.472L34.9526 10.64C35.038 10.576 35.0913 10.544 35.1126 10.544C35.166 10.544 35.1073 10.6667 34.9366 10.912C34.7766 11.1467 34.5153 11.4187 34.1526 11.728C33.8966 11.9307 33.598 12.1653 33.2566 12.432C32.9153 12.6987 32.5526 12.9547 32.1686 13.2C31.7953 13.4347 31.4166 13.632 31.0326 13.792C30.83 13.8667 30.6326 13.9307 30.4406 13.984C30.2593 14.0373 30.078 14.064 29.8966 14.064C29.502 14.064 29.182 13.9787 28.9366 13.808C28.702 13.6267 28.5206 13.408 28.3926 13.152C28.2753 12.8853 28.1846 12.6293 28.1206 12.384C28.0673 12.128 28.014 11.9253 27.9606 11.776C27.7793 11.936 27.5926 12.1387 27.4006 12.384C27.2193 12.6187 27.0486 12.848 26.8886 13.072C26.7393 13.296 26.622 13.4613 26.5366 13.568C26.43 13.7067 26.3073 13.776 26.1686 13.776C26.062 13.776 25.9766 13.7333 25.9126 13.648C25.8593 13.5627 25.8433 13.44 25.8646 13.28C25.886 13.1413 25.9393 12.944 26.0246 12.688C26.1206 12.432 26.2166 12.1707 26.3126 11.904C26.4086 11.6267 26.4673 11.3973 26.4886 11.216C26.4993 11.1733 26.5046 11.136 26.5046 11.104C26.5046 11.0613 26.5046 11.0293 26.5046 11.008C26.5046 10.8587 26.478 10.7573 26.4246 10.704C26.3713 10.64 26.302 10.608 26.2166 10.608C26.0886 10.608 25.9393 10.656 25.7686 10.752C25.6086 10.8373 25.4646 10.9227 25.3366 11.008C25.2193 11.0827 25.0273 11.2373 24.7606 11.472C24.5046 11.696 24.2273 11.9467 23.9286 12.224C23.63 12.5013 23.3473 12.768 23.0806 13.024C22.8566 13.2373 22.6433 13.4613 22.4406 13.696C22.238 13.92 22.0673 14.1067 21.9286 14.256C21.79 14.416 21.694 14.496 21.6406 14.496ZM36.5134 8.592C36.3214 8.592 36.2254 8.48533 36.2254 8.272C36.2254 8.18667 36.2467 8.10133 36.2894 8.016C36.3214 7.93067 36.428 7.86133 36.6094 7.808C36.7907 7.744 36.9827 7.70133 37.1854 7.68C37.3987 7.648 37.564 7.632 37.6814 7.632C37.7774 7.632 37.8254 7.63733 37.8254 7.648C37.8254 7.66933 37.772 7.70133 37.6654 7.744C37.5587 7.78667 37.4467 7.84 37.3294 7.904C37.212 7.968 37.132 8.04267 37.0894 8.128C37.036 8.26667 36.9507 8.37867 36.8334 8.464C36.7267 8.54933 36.62 8.592 36.5134 8.592ZM33.7934 14.128C33.4947 14.128 33.2334 14.0747 33.0094 13.968C32.7854 13.8507 32.6734 13.6427 32.6734 13.344C32.6734 13.024 32.7534 12.7093 32.9134 12.4C33.0734 12.0907 33.2654 11.808 33.4894 11.552C33.7134 11.2853 33.932 11.056 34.1454 10.864C34.3694 10.6613 34.5347 10.512 34.6414 10.416C34.5454 10.3947 34.5614 10.2987 34.6894 10.128C34.8174 9.95733 35.004 9.81867 35.2494 9.712C35.3134 9.69067 35.372 9.68 35.4254 9.68C35.5427 9.68 35.66 9.70667 35.7774 9.76C35.9054 9.81333 35.9694 9.888 35.9694 9.984C35.9694 10.0373 35.948 10.0907 35.9054 10.144C35.8627 10.1973 35.82 10.24 35.7774 10.272C35.692 10.336 35.5587 10.448 35.3774 10.608C35.196 10.768 34.9987 10.9493 34.7854 11.152C34.572 11.3547 34.3694 11.5573 34.1774 11.76C33.996 11.952 33.852 12.112 33.7454 12.24C33.3507 12.7413 33.1534 13.1307 33.1534 13.408C33.1534 13.7067 33.3934 13.856 33.8734 13.856C34.268 13.856 34.652 13.7973 35.0254 13.68C35.4094 13.552 35.7667 13.4027 36.0974 13.232C36.62 12.9653 37.1054 12.6453 37.5534 12.272C38.0014 11.888 38.4654 11.504 38.9454 11.12C38.9667 11.1093 38.9934 11.104 39.0254 11.104C39.0574 11.104 39.0734 11.12 39.0734 11.152C39.0734 11.184 39.052 11.2267 39.0094 11.28C38.9454 11.3653 38.812 11.5093 38.6094 11.712C38.4067 11.904 38.1507 12.1227 37.8414 12.368C37.5427 12.6133 37.2067 12.8587 36.8334 13.104C36.4707 13.3387 36.0974 13.5413 35.7134 13.712C35.5107 13.7973 35.2227 13.888 34.8494 13.984C34.4867 14.08 34.1347 14.128 33.7934 14.128ZM39.1461 14.368C38.7835 14.368 38.4635 14.2987 38.1861 14.16C37.9195 14.0213 37.7861 13.7547 37.7861 13.36C37.7861 13.072 37.8981 12.736 38.1221 12.352C38.3461 11.968 38.6448 11.5627 39.0181 11.136C39.3915 10.7093 39.7915 10.2827 40.2181 9.856C40.6555 9.42933 41.0821 9.024 41.4981 8.64C41.3701 8.61867 41.2475 8.592 41.1301 8.56C41.0128 8.528 40.9008 8.50133 40.7941 8.48C40.3035 8.36267 39.7221 8.224 39.0501 8.064C38.3888 7.89333 37.6741 7.728 36.9061 7.568C36.1381 7.39733 35.3541 7.25867 34.5541 7.152C33.7435 7.03467 32.9541 6.976 32.1861 6.976C31.1835 6.976 30.2661 7.10933 29.4341 7.376C28.6021 7.632 27.9675 8.10133 27.5301 8.784C27.4768 8.88 27.4181 8.928 27.3541 8.928C27.3115 8.928 27.2901 8.88533 27.2901 8.8C27.2901 8.704 27.3221 8.608 27.3861 8.512C27.7275 8.01067 28.1541 7.616 28.6661 7.328C29.1781 7.04 29.7488 6.83733 30.3781 6.72C31.0075 6.592 31.6635 6.528 32.3461 6.528C33.0395 6.528 33.7435 6.576 34.4581 6.672C35.1621 6.768 35.8395 6.88533 36.4901 7.024C37.1515 7.16267 37.7541 7.30667 38.2981 7.456C38.8528 7.59467 39.3221 7.712 39.7061 7.808C39.9621 7.88267 40.2768 7.96267 40.6501 8.048C41.0341 8.13333 41.4395 8.21867 41.8661 8.304L42.9061 7.392C42.8741 7.36 42.8581 7.31733 42.8581 7.264C42.8581 7.15733 42.9221 7.04 43.0501 6.912C43.1781 6.784 43.3435 6.67733 43.5461 6.592C43.6208 6.56 43.7275 6.56 43.8661 6.592C44.0155 6.624 44.1541 6.672 44.2821 6.736C44.4101 6.8 44.4741 6.86933 44.4741 6.944C44.4741 7.008 44.3995 7.09333 44.2501 7.2C44.1115 7.296 44.0155 7.36 43.9621 7.392C43.8341 7.46667 43.6528 7.59467 43.4181 7.776C43.1835 7.95733 42.9115 8.17067 42.6021 8.416C42.9968 8.48 43.3968 8.53333 43.8021 8.576C44.2181 8.608 44.6128 8.624 44.9861 8.624C45.5515 8.624 46.0635 8.57067 46.5221 8.464C46.9808 8.34667 47.3328 8.15467 47.5781 7.888C47.8341 7.61067 47.9301 7.232 47.8661 6.752V6.736C47.8661 6.68267 47.8928 6.656 47.9461 6.656C47.9995 6.656 48.0368 6.68267 48.0581 6.736C48.0688 6.8 48.0741 6.864 48.0741 6.928C48.0848 6.992 48.0901 7.05067 48.0901 7.104C48.0901 7.60533 47.9461 8.00533 47.6581 8.304C47.3701 8.592 46.9915 8.79467 46.5221 8.912C46.0528 9.02933 45.5355 9.088 44.9701 9.088C44.5115 9.088 44.0368 9.056 43.5461 8.992C43.0661 8.928 42.6075 8.85867 42.1701 8.784C41.7435 9.14667 41.3061 9.54133 40.8581 9.968C40.4101 10.384 39.9941 10.8053 39.6101 11.232C39.2261 11.648 38.9115 12.0373 38.6661 12.4C38.4315 12.7627 38.3141 13.0613 38.3141 13.296C38.3141 13.5307 38.4155 13.7067 38.6181 13.824C38.8208 13.9413 39.0875 14 39.4181 14C39.9408 14 40.5381 13.8773 41.2101 13.632C41.2848 13.6107 41.3541 13.584 41.4181 13.552C41.4928 13.52 41.5675 13.488 41.6421 13.456C42.1435 13.232 42.6341 12.9547 43.1141 12.624C43.6048 12.2827 44.0475 11.9467 44.4421 11.616C44.5595 11.52 44.6661 11.44 44.7621 11.376C44.8581 11.312 44.9595 11.2267 45.0661 11.12C45.0875 11.1093 45.1088 11.104 45.1301 11.104C45.1621 11.104 45.1781 11.12 45.1781 11.152C45.1781 11.184 45.1621 11.2267 45.1301 11.28C45.0661 11.3653 44.9115 11.5253 44.6661 11.76C44.4208 11.984 44.1168 12.24 43.7541 12.528C43.3915 12.8053 42.9968 13.0773 42.5701 13.344C42.1541 13.6 41.7328 13.8027 41.3061 13.952C41.0928 14.0267 40.7781 14.112 40.3621 14.208C39.9568 14.3147 39.5515 14.368 39.1461 14.368ZM75.0119 17.248C74.3932 17.248 73.9345 17.008 73.6359 16.528C73.3372 16.0587 73.1879 15.4933 73.1879 14.832C73.1879 13.392 73.4759 11.792 74.0519 10.032C74.6279 8.26133 75.4652 6.47467 76.5639 4.672C76.3079 4.74667 75.9772 4.93867 75.5719 5.248C75.1665 5.55733 74.7185 5.936 74.2279 6.384C73.7372 6.832 73.2412 7.312 72.7399 7.824C72.2492 8.32533 71.7799 8.816 71.3319 9.296C70.8945 9.776 70.5159 10.208 70.1959 10.592C69.8865 10.9653 69.6732 11.248 69.5559 11.44C69.5025 11.5253 69.4172 11.568 69.2999 11.568C69.1612 11.568 69.0172 11.4987 68.8679 11.36C68.7292 11.2213 68.6599 11.0667 68.6599 10.896C68.6599 10.832 68.7399 10.672 68.8999 10.416C69.0599 10.1493 69.2519 9.824 69.4759 9.44C69.7105 9.04533 69.9292 8.63467 70.1319 8.208C70.1959 8.06933 70.2865 7.872 70.4039 7.616C70.5212 7.36 70.6385 7.08267 70.7559 6.784C70.8839 6.47467 70.9905 6.176 71.0759 5.888C71.1612 5.58933 71.2039 5.33333 71.2039 5.12C71.2039 4.94933 71.1719 4.816 71.1079 4.72C71.0439 4.61333 70.9372 4.56 70.7879 4.56C70.5852 4.56 70.3025 4.66133 69.9399 4.864C69.4385 5.14133 68.9105 5.54133 68.3559 6.064C67.8012 6.576 67.2465 7.168 66.6919 7.84C66.1479 8.50133 65.6305 9.20533 65.1399 9.952C64.6492 10.688 64.2172 11.4293 63.8439 12.176C63.4705 12.912 63.1825 13.6107 62.9799 14.272C62.9265 14.3467 62.8465 14.4213 62.7399 14.496C62.6332 14.5707 62.5265 14.608 62.4199 14.608C62.3452 14.608 62.2759 14.576 62.2119 14.512C62.1479 14.448 62.1159 14.336 62.1159 14.176C62.1159 14.0907 62.1425 13.984 62.1959 13.856C62.2492 13.728 62.3025 13.5787 62.3559 13.408C62.3985 13.28 62.5319 12.9973 62.7559 12.56C62.9799 12.1227 63.2625 11.584 63.6039 10.944C63.9452 10.2933 64.3132 9.58933 64.7079 8.832C65.1132 8.064 65.5079 7.29067 65.8919 6.512C66.1585 5.97867 66.3825 5.43467 66.5639 4.88C66.7452 4.31467 66.8359 3.80267 66.8359 3.344C66.8359 2.87467 66.6919 2.496 66.4039 2.208C66.1265 1.90933 65.6305 1.76 64.9159 1.76C63.9239 1.76 62.8839 1.86667 61.7959 2.08C60.7185 2.28267 59.6359 2.57067 58.5479 2.944C57.4705 3.30667 56.4199 3.73333 55.3959 4.224C54.3825 4.71467 53.4385 5.24267 52.5639 5.808C51.6892 6.37333 50.9212 6.96 50.2599 7.568C49.5985 8.16533 49.0812 8.76267 48.7079 9.36C48.3452 9.94667 48.1639 10.512 48.1639 11.056C48.1639 11.536 48.2865 11.8613 48.5319 12.032C48.7772 12.192 49.0652 12.272 49.3959 12.272C49.6305 12.272 49.8705 12.2453 50.1159 12.192C50.3719 12.1387 50.6012 12.0907 50.8039 12.048C50.8252 12.0373 50.8625 12.032 50.9159 12.032C51.0012 12.032 51.0705 12.048 51.1239 12.08C51.1879 12.112 51.2199 12.1493 51.2199 12.192C51.2199 12.224 51.1825 12.256 51.1079 12.288C50.8625 12.3627 50.5959 12.4267 50.3079 12.48C50.0305 12.5333 49.7532 12.56 49.4759 12.56C49.1025 12.56 48.7505 12.5067 48.4199 12.4C48.0892 12.2933 47.8225 12.1173 47.6199 11.872C47.4279 11.6267 47.3319 11.296 47.3319 10.88C47.3319 10.336 47.5292 9.76533 47.9239 9.168C48.3185 8.56 48.8625 7.952 49.5559 7.344C50.2599 6.736 51.0759 6.144 52.0039 5.568C52.9319 4.992 53.9292 4.45867 54.9959 3.968C56.0732 3.46667 57.1825 3.02933 58.3239 2.656C59.4759 2.28267 60.6172 1.99467 61.7479 1.792C62.8785 1.57867 63.9612 1.472 64.9959 1.472C65.9772 1.472 66.6652 1.64267 67.0599 1.984C67.4652 2.31467 67.6679 2.76267 67.6679 3.328C67.6679 3.776 67.5665 4.27733 67.3639 4.832C67.1719 5.376 66.9212 5.94667 66.6119 6.544C66.3452 7.06667 66.0945 7.536 65.8599 7.952C65.6359 8.35733 65.4279 8.73067 65.2359 9.072C65.7052 8.464 66.2012 7.86667 66.7239 7.28C67.2465 6.68267 67.7745 6.144 68.3079 5.664C68.8519 5.17333 69.3799 4.784 69.8919 4.496C70.4145 4.208 70.8945 4.064 71.3319 4.064C71.6412 4.064 71.8545 4.144 71.9719 4.304C72.0892 4.464 72.1479 4.672 72.1479 4.928C72.1479 5.23733 72.0785 5.59467 71.9399 6C71.8119 6.39467 71.6519 6.78933 71.4599 7.184C71.2679 7.568 71.0919 7.904 70.9319 8.192C70.7292 8.55467 70.5372 8.90133 70.3559 9.232C70.1852 9.56267 70.0039 9.888 69.8119 10.208C70.0785 9.97333 70.4252 9.63733 70.8519 9.2C71.2785 8.76267 71.7585 8.27733 72.2919 7.744C72.8252 7.2 73.3799 6.656 73.9559 6.112C74.5319 5.55733 75.1025 5.05067 75.6679 4.592C76.2439 4.12267 76.7772 3.75467 77.2679 3.488C77.3319 3.44533 77.4119 3.45067 77.5079 3.504C77.6039 3.55733 77.6892 3.632 77.7639 3.728C77.8385 3.824 77.8759 3.91467 77.8759 4C77.8759 4.11733 77.8439 4.26133 77.7799 4.432C77.7265 4.592 77.6252 4.752 77.4759 4.912C76.9532 5.52 76.4732 6.22933 76.0359 7.04C75.6092 7.85067 75.2412 8.704 74.9319 9.6C74.6332 10.496 74.3985 11.3707 74.2279 12.224C74.0679 13.0773 73.9879 13.8453 73.9879 14.528C73.9879 15.2427 74.0839 15.8133 74.2759 16.24C74.4679 16.6773 74.7719 16.8853 75.1879 16.864C75.4332 16.8427 75.7052 16.768 76.0039 16.64C76.3025 16.5227 76.5959 16.3733 76.8839 16.192C77.1719 16.0213 77.4225 15.856 77.6359 15.696C77.6465 15.6853 77.6572 15.68 77.6679 15.68C77.6892 15.68 77.6999 15.7067 77.6999 15.76C77.7105 15.8133 77.7052 15.856 77.6839 15.888C77.6412 15.9413 77.5399 16.0373 77.3799 16.176C77.2199 16.3253 77.0172 16.48 76.7719 16.64C76.5265 16.8107 76.2545 16.9547 75.9559 17.072C75.6572 17.1893 75.3425 17.248 75.0119 17.248ZM82.6584 14.176C82.3384 14.176 82.0557 14.096 81.8104 13.936C81.5757 13.776 81.4584 13.4773 81.4584 13.04C81.469 12.816 81.5064 12.5867 81.5704 12.352C81.645 12.1067 81.725 11.8773 81.8104 11.664C81.6717 11.824 81.4637 12.0373 81.1864 12.304C80.909 12.5707 80.5944 12.8427 80.2424 13.12C79.901 13.3867 79.549 13.616 79.1864 13.808C78.8237 14 78.4824 14.096 78.1624 14.096C77.8424 14.096 77.581 13.9787 77.3784 13.744C77.2397 13.5947 77.1704 13.3973 77.1704 13.152C77.1704 12.8427 77.277 12.5013 77.4904 12.128C77.7144 11.744 78.013 11.3653 78.3864 10.992C78.7597 10.608 79.1864 10.256 79.6664 9.936C80.157 9.616 80.669 9.36533 81.2024 9.184C81.7784 8.98133 82.2797 8.88 82.7064 8.88C83.4317 8.88 83.7944 9.18933 83.7944 9.808C83.7944 9.86133 83.789 9.92 83.7784 9.984C83.7784 10.0373 83.773 10.096 83.7624 10.16C83.741 10.288 83.6984 10.3893 83.6344 10.464C83.581 10.5387 83.5384 10.576 83.5064 10.576C83.453 10.576 83.4424 10.5173 83.4744 10.4C83.4957 10.3467 83.5064 10.2933 83.5064 10.24C83.5064 10.176 83.5064 10.1227 83.5064 10.08C83.5064 9.90933 83.4637 9.776 83.3784 9.68C83.293 9.57333 83.1437 9.52 82.9304 9.52C82.7384 9.52 82.4984 9.56267 82.2104 9.648C81.933 9.72267 81.6344 9.824 81.3144 9.952C80.9944 10.0693 80.685 10.2027 80.3864 10.352C80.0984 10.5013 79.8584 10.6507 79.6664 10.8C79.3357 11.0347 79.0264 11.296 78.7384 11.584C78.4504 11.872 78.2104 12.1547 78.0184 12.432C77.8264 12.6987 77.7144 12.944 77.6824 13.168C77.6717 13.2 77.6664 13.232 77.6664 13.264C77.6664 13.296 77.6664 13.3227 77.6664 13.344C77.6664 13.536 77.7037 13.6693 77.7784 13.744C77.8637 13.8187 77.9704 13.856 78.0984 13.856C78.2904 13.856 78.509 13.7973 78.7544 13.68C79.0104 13.5627 79.245 13.4293 79.4584 13.28C79.6717 13.1307 79.821 13.0187 79.9064 12.944C80.2477 12.656 80.6317 12.3413 81.0584 12C81.485 11.648 81.8637 11.3227 82.1944 11.024C82.2477 10.992 82.3064 10.976 82.3704 10.976C82.5197 10.976 82.6424 11.0133 82.7384 11.088C82.7704 11.12 82.7864 11.1627 82.7864 11.216C82.7864 11.2693 82.7704 11.3387 82.7384 11.424C82.717 11.4987 82.685 11.584 82.6424 11.68C82.461 12.0533 82.3117 12.3893 82.1944 12.688C82.077 12.9867 82.0184 13.2373 82.0184 13.44C82.0184 13.76 82.1944 13.92 82.5464 13.92C82.813 13.92 83.2077 13.824 83.7304 13.632C84.2957 13.4187 84.861 13.1253 85.4264 12.752C85.9917 12.3787 86.5037 12 86.9624 11.616C87.0797 11.52 87.1864 11.44 87.2824 11.376C87.3784 11.312 87.4797 11.2267 87.5864 11.12C87.6077 11.1093 87.6344 11.104 87.6664 11.104C87.6984 11.104 87.7144 11.12 87.7144 11.152C87.7144 11.184 87.693 11.2267 87.6504 11.28C87.5864 11.3653 87.4317 11.5253 87.1864 11.76C86.941 11.984 86.637 12.24 86.2744 12.528C85.9117 12.8053 85.517 13.0773 85.0904 13.344C84.6744 13.6 84.253 13.8027 83.8264 13.952C83.6664 14.0053 83.4797 14.0533 83.2664 14.096C83.0637 14.1493 82.861 14.176 82.6584 14.176ZM87.7086 14.368C87.346 14.368 87.026 14.2987 86.7486 14.16C86.482 14.0213 86.3486 13.7547 86.3486 13.36C86.3486 13.072 86.4606 12.736 86.6846 12.352C86.9086 11.968 87.2073 11.5627 87.5806 11.136C87.954 10.7093 88.354 10.2827 88.7806 9.856C89.218 9.42933 89.6446 9.024 90.0606 8.64C89.9326 8.61867 89.81 8.592 89.6926 8.56C89.5753 8.528 89.4633 8.50133 89.3566 8.48C88.866 8.36267 88.2846 8.224 87.6126 8.064C86.9513 7.89333 86.2366 7.728 85.4686 7.568C84.7006 7.39733 83.9166 7.25867 83.1166 7.152C82.306 7.03467 81.5166 6.976 80.7486 6.976C79.746 6.976 78.8286 7.10933 77.9966 7.376C77.1646 7.632 76.53 8.10133 76.0926 8.784C76.0393 8.88 75.9806 8.928 75.9166 8.928C75.874 8.928 75.8526 8.88533 75.8526 8.8C75.8526 8.704 75.8846 8.608 75.9486 8.512C76.29 8.01067 76.7166 7.616 77.2286 7.328C77.7406 7.04 78.3113 6.83733 78.9406 6.72C79.57 6.592 80.226 6.528 80.9086 6.528C81.602 6.528 82.306 6.576 83.0206 6.672C83.7246 6.768 84.402 6.88533 85.0526 7.024C85.714 7.16267 86.3166 7.30667 86.8606 7.456C87.4153 7.59467 87.8846 7.712 88.2686 7.808C88.5246 7.88267 88.8393 7.96267 89.2126 8.048C89.5966 8.13333 90.002 8.21867 90.4286 8.304L91.4686 7.392C91.4366 7.36 91.4206 7.31733 91.4206 7.264C91.4206 7.15733 91.4846 7.04 91.6126 6.912C91.7406 6.784 91.906 6.67733 92.1086 6.592C92.1833 6.56 92.29 6.56 92.4286 6.592C92.578 6.624 92.7166 6.672 92.8446 6.736C92.9726 6.8 93.0366 6.86933 93.0366 6.944C93.0366 7.008 92.962 7.09333 92.8126 7.2C92.674 7.296 92.578 7.36 92.5246 7.392C92.3966 7.46667 92.2153 7.59467 91.9806 7.776C91.746 7.95733 91.474 8.17067 91.1646 8.416C91.5593 8.48 91.9593 8.53333 92.3646 8.576C92.7806 8.608 93.1753 8.624 93.5486 8.624C94.114 8.624 94.626 8.57067 95.0846 8.464C95.5433 8.34667 95.8953 8.15467 96.1406 7.888C96.3966 7.61067 96.4926 7.232 96.4286 6.752V6.736C96.4286 6.68267 96.4553 6.656 96.5086 6.656C96.562 6.656 96.5993 6.68267 96.6206 6.736C96.6313 6.8 96.6366 6.864 96.6366 6.928C96.6473 6.992 96.6526 7.05067 96.6526 7.104C96.6526 7.60533 96.5086 8.00533 96.2206 8.304C95.9326 8.592 95.554 8.79467 95.0846 8.912C94.6153 9.02933 94.098 9.088 93.5326 9.088C93.074 9.088 92.5993 9.056 92.1086 8.992C91.6286 8.928 91.17 8.85867 90.7326 8.784C90.306 9.14667 89.8686 9.54133 89.4206 9.968C88.9726 10.384 88.5566 10.8053 88.1726 11.232C87.7886 11.648 87.474 12.0373 87.2286 12.4C86.994 12.7627 86.8766 13.0613 86.8766 13.296C86.8766 13.5307 86.978 13.7067 87.1806 13.824C87.3833 13.9413 87.65 14 87.9806 14C88.5033 14 89.1006 13.8773 89.7726 13.632C89.8473 13.6107 89.9166 13.584 89.9806 13.552C90.0553 13.52 90.13 13.488 90.2046 13.456C90.706 13.232 91.1966 12.9547 91.6766 12.624C92.1673 12.2827 92.61 11.9467 93.0046 11.616C93.122 11.52 93.2286 11.44 93.3246 11.376C93.4206 11.312 93.522 11.2267 93.6286 11.12C93.65 11.1093 93.6713 11.104 93.6926 11.104C93.7246 11.104 93.7406 11.12 93.7406 11.152C93.7406 11.184 93.7246 11.2267 93.6926 11.28C93.6286 11.3653 93.474 11.5253 93.2286 11.76C92.9833 11.984 92.6793 12.24 92.3166 12.528C91.954 12.8053 91.5593 13.0773 91.1326 13.344C90.7166 13.6 90.2953 13.8027 89.8686 13.952C89.6553 14.0267 89.3406 14.112 88.9246 14.208C88.5193 14.3147 88.114 14.368 87.7086 14.368ZM98.4606 14.272C98.0233 14.272 97.6713 14.1707 97.4046 13.968C97.138 13.7547 96.946 13.4773 96.8286 13.136C96.7113 12.784 96.6526 12.4053 96.6526 12C96.6526 11.7333 96.674 11.4667 96.7166 11.2C96.7593 10.9227 96.818 10.6507 96.8926 10.384C96.658 10.672 96.3806 10.9867 96.0606 11.328C95.7406 11.6693 95.4046 12.0053 95.0526 12.336C94.7113 12.6667 94.3966 12.96 94.1086 13.216C93.8206 13.4613 93.5913 13.632 93.4206 13.728C93.4633 13.8027 93.4846 13.872 93.4846 13.936C93.4846 14.0853 93.3993 14.16 93.2286 14.16C93.154 14.16 93.074 14.1333 92.9886 14.08C92.9033 14.0267 92.834 13.9413 92.7806 13.824C92.738 13.7387 92.7166 13.632 92.7166 13.504C92.7166 13.184 92.8233 12.7947 93.0366 12.336C93.25 11.8773 93.5113 11.3973 93.8206 10.896C94.13 10.3947 94.4233 9.92533 94.7006 9.488C94.626 9.43467 94.578 9.38133 94.5566 9.328C94.5353 9.27467 94.5246 9.23733 94.5246 9.216C94.514 9.184 94.5193 9.15733 94.5406 9.136C94.562 9.104 94.594 9.104 94.6366 9.136C94.6686 9.21067 94.7273 9.27467 94.8126 9.328C94.8766 9.232 95.026 8.99733 95.2606 8.624C95.506 8.24 95.8153 7.77067 96.1886 7.216C96.5726 6.65067 97.0046 6.048 97.4846 5.408C97.9753 4.768 98.498 4.13867 99.0526 3.52C99.618 2.89067 100.194 2.32 100.781 1.808C101.378 1.28533 101.975 0.869333 102.573 0.559999C103.17 0.250666 103.751 0.0959997 104.317 0.0959997C104.85 0.0959997 105.239 0.229333 105.485 0.495999C105.741 0.762666 105.869 1.11467 105.869 1.552C105.869 2.16 105.735 2.752 105.469 3.328C105.202 3.89333 104.845 4.43733 104.397 4.96C103.959 5.472 103.469 5.95733 102.925 6.416C102.381 6.87467 101.826 7.296 101.261 7.68C100.717 8.05333 100.13 8.384 99.5006 8.672C98.8713 8.94933 98.2633 9.17867 97.6766 9.36C97.73 9.40267 97.778 9.456 97.8206 9.52C97.874 9.584 97.9326 9.65867 97.9966 9.744C98.018 9.78667 98.0286 9.824 98.0286 9.856C98.0286 9.92 98.018 9.98933 97.9966 10.064C97.9753 10.128 97.954 10.176 97.9326 10.208C97.7086 10.5493 97.538 10.9067 97.4206 11.28C97.3033 11.6533 97.2446 12.0107 97.2446 12.352C97.2446 12.8 97.3566 13.1787 97.5806 13.488C97.8046 13.7973 98.1566 13.952 98.6366 13.952C98.882 13.952 99.154 13.9093 99.4526 13.824C99.7513 13.7387 100.082 13.5947 100.445 13.392C100.914 13.168 101.389 12.896 101.869 12.576C102.349 12.256 102.786 11.936 103.181 11.616C103.298 11.52 103.405 11.44 103.501 11.376C103.607 11.312 103.714 11.2267 103.821 11.12C103.842 11.1093 103.869 11.104 103.901 11.104C103.933 11.104 103.949 11.12 103.949 11.152C103.949 11.184 103.927 11.2267 103.885 11.28C103.821 11.3547 103.677 11.4933 103.453 11.696C103.229 11.8987 102.951 12.128 102.621 12.384C102.301 12.64 101.949 12.8907 101.565 13.136C101.191 13.3813 100.813 13.5947 100.429 13.776C100.215 13.8827 99.922 13.9893 99.5486 14.096C99.186 14.2133 98.8233 14.272 98.4606 14.272ZM95.2766 9.456C95.5006 9.456 95.8366 9.40267 96.2846 9.296C96.7326 9.18933 97.234 9.04 97.7886 8.848C98.3433 8.64533 98.9086 8.41067 99.4846 8.144C100.061 7.86667 100.589 7.56267 101.069 7.232C101.378 7.01867 101.725 6.75733 102.109 6.448C102.493 6.128 102.882 5.776 103.277 5.392C103.671 4.99733 104.034 4.58667 104.365 4.16C104.695 3.72267 104.962 3.28 105.165 2.832C105.367 2.37333 105.469 1.92533 105.469 1.488C105.469 0.847999 105.085 0.527999 104.317 0.527999C104.039 0.527999 103.719 0.618666 103.357 0.799999C102.994 0.970666 102.615 1.2 102.221 1.488C101.826 1.776 101.431 2.096 101.037 2.448C100.642 2.78933 100.274 3.136 99.9326 3.488C99.602 3.84 99.314 4.16 99.0686 4.448C98.5886 5.03467 98.0926 5.648 97.5806 6.288C97.0793 6.928 96.6206 7.52533 96.2046 8.08C95.7993 8.63467 95.49 9.09333 95.2766 9.456ZM93.3566 13.392C93.4526 13.3387 93.618 13.2107 93.8526 13.008C94.098 12.8053 94.3753 12.5547 94.6846 12.256C94.994 11.9573 95.3033 11.648 95.6126 11.328C95.9326 11.008 96.226 10.7093 96.4926 10.432C96.7593 10.144 96.9673 9.91467 97.1166 9.744C97.138 9.69067 97.1593 9.64267 97.1806 9.6C97.202 9.54667 97.2233 9.504 97.2446 9.472C96.626 9.632 96.0873 9.712 95.6286 9.712C95.554 9.712 95.4793 9.712 95.4046 9.712C95.33 9.70133 95.2606 9.69067 95.1966 9.68H95.1806C94.9566 10.0107 94.7273 10.3627 94.4926 10.736C94.2686 11.0987 94.0606 11.456 93.8686 11.808C93.6873 12.1493 93.5486 12.4587 93.4526 12.736C93.3566 13.0133 93.3246 13.232 93.3566 13.392ZM107.536 14.176C107.046 14.176 106.71 14.0693 106.528 13.856C106.347 13.632 106.256 13.3653 106.256 13.056C106.256 12.832 106.294 12.5973 106.368 12.352C106.443 12.1067 106.523 11.8773 106.608 11.664C106.459 11.824 106.256 12.0373 106 12.304C105.744 12.5707 105.462 12.8427 105.152 13.12C104.843 13.3867 104.523 13.616 104.192 13.808C103.872 13.9893 103.574 14.08 103.296 14.08C103.158 14.08 103.024 14.048 102.896 13.984C102.768 13.92 102.656 13.8187 102.56 13.68C102.443 13.52 102.384 13.3333 102.384 13.12C102.384 12.8853 102.448 12.6507 102.576 12.416C102.715 12.1813 102.87 11.9573 103.04 11.744C103.222 11.52 103.376 11.312 103.504 11.12C103.739 10.7787 103.947 10.432 104.128 10.08C104.32 9.728 104.416 9.43467 104.416 9.2C104.416 9.04 104.368 8.92267 104.272 8.848C104.166 8.76267 104.112 8.672 104.112 8.576C104.112 8.53333 104.134 8.512 104.176 8.512C104.23 8.512 104.294 8.53867 104.368 8.592C104.443 8.63467 104.523 8.69333 104.608 8.768C104.694 8.84267 104.774 8.928 104.848 9.024C104.912 9.09867 104.976 9.184 105.04 9.28C105.104 9.376 105.136 9.488 105.136 9.616C105.136 9.776 105.078 9.952 104.96 10.144C104.843 10.3467 104.694 10.5707 104.512 10.816C104.342 11.0613 104.16 11.3067 103.968 11.552C103.883 11.6693 103.75 11.856 103.568 12.112C103.387 12.368 103.222 12.6347 103.072 12.912C102.923 13.1787 102.848 13.4027 102.848 13.584C102.848 13.776 102.95 13.872 103.152 13.872C103.323 13.872 103.52 13.808 103.744 13.68C103.979 13.552 104.198 13.408 104.4 13.248C104.614 13.088 104.768 12.9653 104.864 12.88C105.206 12.592 105.563 12.288 105.936 11.968C106.31 11.6373 106.667 11.3227 107.008 11.024C107.062 10.992 107.12 10.976 107.184 10.976C107.312 10.976 107.414 11.0133 107.488 11.088C107.52 11.12 107.536 11.1627 107.536 11.216C107.536 11.344 107.478 11.52 107.36 11.744C107.243 11.968 107.12 12.208 106.992 12.464C106.875 12.72 106.8 12.96 106.768 13.184C106.758 13.2267 106.752 13.264 106.752 13.296C106.752 13.328 106.752 13.36 106.752 13.392C106.752 13.5947 106.806 13.7333 106.912 13.808C107.03 13.8827 107.174 13.92 107.344 13.92C107.558 13.92 107.776 13.888 108 13.824C108.235 13.7493 108.422 13.6853 108.56 13.632C109.126 13.4187 109.691 13.1253 110.256 12.752C110.822 12.3787 111.334 12 111.792 11.616C111.91 11.52 112.016 11.4347 112.112 11.36C112.219 11.2747 112.326 11.1787 112.432 11.072C112.507 10.9973 112.555 10.96 112.576 10.96C112.587 10.96 112.592 10.9707 112.592 10.992C112.592 11.0133 112.576 11.0507 112.544 11.104C112.523 11.1573 112.502 11.2053 112.48 11.248C112.384 11.408 112.203 11.6107 111.936 11.856C111.68 12.1013 111.371 12.3573 111.008 12.624C110.656 12.8907 110.272 13.1413 109.856 13.376C109.451 13.6107 109.046 13.8027 108.64 13.952C108.246 14.1013 107.878 14.176 107.536 14.176ZM113.627 16.8C113.147 16.8 112.801 16.6827 112.587 16.448C112.385 16.2133 112.283 15.9147 112.283 15.552C112.283 15.1253 112.395 14.6347 112.619 14.08C112.854 13.5253 113.158 12.9653 113.531 12.4C113.905 11.824 114.305 11.3013 114.731 10.832C114.539 10.8853 114.358 10.912 114.187 10.912C113.793 10.912 113.478 10.8107 113.243 10.608L113.131 10.768C113.057 10.8747 112.923 11.024 112.731 11.216C112.55 11.408 112.369 11.5787 112.187 11.728C111.729 12.112 111.243 12.4747 110.731 12.816C110.23 13.1573 109.734 13.44 109.243 13.664C108.753 13.888 108.294 14.016 107.867 14.048C107.825 14.048 107.777 14.0373 107.723 14.016C107.67 14.0053 107.643 13.9893 107.643 13.968C107.643 13.936 107.739 13.8987 107.931 13.856C108.305 13.7813 108.715 13.6267 109.163 13.392C109.622 13.1467 110.091 12.8587 110.571 12.528C111.062 12.1867 111.531 11.8347 111.979 11.472C112.161 11.3227 112.353 11.152 112.555 10.96C112.769 10.768 112.955 10.5973 113.115 10.448C112.998 10.288 112.939 10.096 112.939 9.872C112.939 9.62667 113.003 9.38133 113.131 9.136C113.27 8.88 113.446 8.64533 113.659 8.432C113.873 8.21867 114.097 8.048 114.331 7.92C114.577 7.78133 114.801 7.712 115.003 7.712C115.174 7.712 115.259 7.78133 115.259 7.92C115.259 8.016 115.217 8.096 115.131 8.16C115.057 8.224 114.929 8.34667 114.747 8.528C114.577 8.69867 114.39 8.896 114.187 9.12C113.985 9.344 113.803 9.56267 113.643 9.776C113.483 9.97867 113.382 10.144 113.339 10.272C113.382 10.3467 113.441 10.416 113.515 10.48C113.59 10.5333 113.734 10.56 113.947 10.56C114.225 10.56 114.486 10.5067 114.731 10.4C114.987 10.2827 115.227 10.1493 115.451 10C115.515 9.97867 115.574 9.968 115.627 9.968C115.862 9.968 116.033 10.032 116.139 10.16C116.182 10.224 116.129 10.3413 115.979 10.512C115.83 10.6827 115.681 10.848 115.531 11.008C115.222 11.3387 114.907 11.7173 114.587 12.144C114.267 12.56 113.974 12.9867 113.707 13.424C113.441 13.8613 113.227 14.2773 113.067 14.672C112.907 15.0667 112.827 15.408 112.827 15.696C112.827 15.9307 112.891 16.1173 113.019 16.256C113.147 16.3947 113.361 16.464 113.659 16.464C113.787 16.464 113.931 16.448 114.091 16.416C114.369 16.3733 114.683 16.272 115.035 16.112C115.387 15.9627 115.739 15.7867 116.091 15.584C116.443 15.392 116.742 15.2107 116.987 15.04C117.009 15.0293 117.03 15.024 117.051 15.024C117.083 15.024 117.099 15.0453 117.099 15.088C117.099 15.1307 117.078 15.1627 117.035 15.184C116.961 15.248 116.79 15.392 116.523 15.616C116.267 15.84 115.942 16.064 115.547 16.288C115.163 16.512 114.731 16.6613 114.251 16.736C114.145 16.7467 114.038 16.7573 113.931 16.768C113.825 16.7893 113.723 16.8 113.627 16.8Z" fill="white"/>
</svg>
