<svg width="97" height="21" viewBox="0 0 97 21" fill="none" xmlns="http://www.w3.org/2000/svg">
<path d="M5.44531 0.492188C5.99219 0.492188 6.52344 0.585938 7.03906 0.773438C7.57031 0.960938 8.07812 1.23437 8.5625 1.59375C8.64062 1.67188 8.72656 1.75 8.82031 1.82812C8.89844 1.75 8.98438 1.67188 9.07812 1.59375C9.5625 1.23437 10.0625 0.960938 10.5781 0.773438C11.1094 0.585938 11.6406 0.492188 12.1719 0.492188C12.7188 0.492188 13.25 0.585938 13.7656 0.773438C14.2969 0.960938 14.7969 1.24219 15.2656 1.61719C15.75 1.97656 16.1719 2.46094 16.5312 3.07031C16.9062 3.67969 17.0938 4.40625 17.0938 5.25V13.7109C17 14.6484 16.4844 15.1562 15.5469 15.2344C15.1094 15.2344 14.7266 15.0938 14.3984 14.8125C14.0859 14.5156 13.9297 14.1484 13.9297 13.7109V5.4375C13.9297 5.0625 13.8594 4.75 13.7188 4.5C13.5781 4.23438 13.4219 4.03125 13.25 3.89062C13.0781 3.73438 12.8984 3.625 12.7109 3.5625C12.5234 3.48438 12.3359 3.44531 12.1484 3.44531C11.9609 3.44531 11.7734 3.48438 11.5859 3.5625C11.4141 3.625 11.2422 3.73438 11.0703 3.89062C10.8984 4.03125 10.7422 4.23438 10.6016 4.5C10.4609 4.75 10.3828 5.0625 10.3672 5.4375V13.7109C10.2734 14.6484 9.75781 15.1562 8.82031 15.2344C8.38281 15.2344 8 15.0938 7.67188 14.8125C7.35938 14.5156 7.20312 14.1484 7.20312 13.7109V5.4375C7.20312 5.0625 7.13281 4.75 6.99219 4.5C6.85156 4.23438 6.69531 4.03125 6.52344 3.89062C6.35156 3.73438 6.17188 3.625 5.98438 3.5625C5.79688 3.48438 5.60938 3.44531 5.42188 3.44531C5.23438 3.44531 5.04688 3.48438 4.85938 3.5625C4.6875 3.625 4.51562 3.73438 4.34375 3.89062C4.17188 4.03125 4.01562 4.23438 3.875 4.5C3.73438 4.75 3.65625 5.0625 3.64062 5.4375V13.7109C3.5625 14.6484 3.05469 15.1562 2.11719 15.2344C1.67969 15.2344 1.29688 15.0938 0.96875 14.8125C0.65625 14.5156 0.5 14.1484 0.5 13.7109V5.25C0.53125 4.40625 0.726562 3.67969 1.08594 3.07031C1.44531 2.46094 1.86719 1.97656 2.35156 1.61719C2.83594 1.24219 3.33594 0.960938 3.85156 0.773438C4.38281 0.585938 4.91406 0.492188 5.44531 0.492188ZM21.6172 4.03125C22.0547 4.03125 22.4297 4.17969 22.7422 4.47656C23.0547 4.75781 23.2188 5.11719 23.2344 5.55469V7.92188C23.2188 8.5625 23.2578 9.15625 23.3516 9.70312C23.4609 10.2344 23.7109 10.7109 24.1016 11.1328C24.4922 11.5547 24.9844 11.7812 25.5781 11.8125H31.8359V5.60156C31.8359 5.16406 31.9922 4.80469 32.3047 4.52344C32.6328 4.22656 33.0156 4.07812 33.4531 4.07812C34.3906 4.15625 34.9062 4.66406 35 5.60156V13.2422C35 14.4922 34.8281 15.6719 34.4844 16.7812C34.1719 17.7656 33.6562 18.5938 32.9375 19.2656C32.2344 19.9531 31.3359 20.3281 30.2422 20.3906H22.1328C21.7109 20.375 21.3516 20.2188 21.0547 19.9219C20.7734 19.6406 20.625 19.2891 20.6094 18.8672C20.6094 18.4297 20.75 18.0547 21.0312 17.7422C21.3281 17.4297 21.6953 17.2656 22.1328 17.25H29.4453C30.0391 17.2188 30.5312 16.9922 30.9219 16.5703C31.3125 16.1484 31.5625 15.6562 31.6719 15.0938C31.6875 15.0469 31.6953 15 31.6953 14.9531H24.7812C23.6875 14.8906 22.7812 14.5234 22.0625 13.8516C21.3594 13.1641 20.8516 12.3281 20.5391 11.3438C20.2422 10.3594 20.0859 9.3125 20.0703 8.20312V5.55469C20.0859 5.13281 20.2422 4.78125 20.5391 4.5C20.8359 4.20312 21.1953 4.04688 21.6172 4.03125ZM52.9531 5.67188C52.9531 6.0625 52.7969 6.39062 52.4844 6.65625C52.1875 6.90625 51.8203 7.03125 51.3828 7.03125H41.4688C41.2656 7.03125 41.1016 7.07031 40.9766 7.14844C40.8516 7.22656 40.7578 7.3125 40.6953 7.40625C40.6328 7.48438 40.6016 7.55469 40.6016 7.61719C40.6016 7.69531 40.6328 7.78125 40.6953 7.875C40.7578 7.95312 40.8516 8.03125 40.9766 8.10938C41.1016 8.17188 41.2656 8.21094 41.4688 8.22656H49.1328C50.1172 8.24219 50.9297 8.4375 51.5703 8.8125C52.2109 9.17188 52.6641 9.60156 52.9297 10.1016C53.2109 10.5859 53.3516 11.0781 53.3516 11.5781C53.3516 12.0625 53.2109 12.5547 52.9297 13.0547C52.6484 13.5391 52.1875 13.9688 51.5469 14.3438C50.9219 14.7031 50.1172 14.8828 49.1328 14.8828C48.9609 14.8984 48.8359 14.9062 48.7578 14.9062H39.6641C39.2266 14.9062 38.8516 14.7812 38.5391 14.5312C38.2422 14.2656 38.0938 13.9453 38.0938 13.5703C38.0938 13.1797 38.25 12.8516 38.5625 12.5859C38.8594 12.3359 39.2266 12.2109 39.6641 12.2109H49.3203C49.5547 12.2266 49.7422 12.1953 49.8828 12.1172C50.0391 12.0391 50.1562 11.9531 50.2344 11.8594C50.3125 11.7656 50.3516 11.6719 50.3516 11.5781C50.3516 11.5312 50.3125 11.4531 50.2344 11.3438C50.1562 11.2188 50.0391 11.125 49.8828 11.0625C49.7422 10.9844 49.5547 10.9375 49.3203 10.9219H41.6328C40.7266 10.9062 39.9766 10.7188 39.3828 10.3594C38.7891 9.98438 38.3672 9.55469 38.1172 9.07031C37.8672 8.58594 37.7422 8.10156 37.7422 7.61719C37.7422 7.13281 37.8672 6.65625 38.1172 6.1875C38.3828 5.70312 38.8047 5.28906 39.3828 4.94531C39.9766 4.58594 40.7266 4.39062 41.6328 4.35938C41.7891 4.34375 41.9062 4.33594 41.9844 4.33594H51.3828C51.8203 4.33594 52.1875 4.46875 52.4844 4.73438C52.7969 4.98438 52.9531 5.29688 52.9531 5.67188ZM60.7578 14.9531C59.3828 14.9062 58.3438 14.5859 57.6406 13.9922C56.9375 13.3828 56.4297 12.7031 56.1172 11.9531C55.8047 11.1875 55.6484 10.4141 55.6484 9.63281C55.6484 8.82031 55.7969 8.03906 56.0938 7.28906C56.4062 6.52344 56.9141 5.84375 57.6172 5.25C58.3359 4.64062 59.2422 4.32812 60.3359 4.3125H69.2422C69.6797 4.3125 70.0469 4.46094 70.3438 4.75781C70.6562 5.03906 70.8125 5.38281 70.8125 5.78906C70.8125 6.21094 70.6562 6.57031 70.3438 6.86719C70.0469 7.14844 69.6797 7.28906 69.2422 7.28906H60.4766C60.1328 7.28906 59.8281 7.40625 59.5625 7.64062C59.3125 7.875 59.125 8.17969 59 8.55469C58.8906 8.92969 58.8359 9.29688 58.8359 9.65625C58.8359 10.0469 58.8906 10.4297 59 10.8047C59.125 11.1797 59.3125 11.4844 59.5625 11.7188C59.8281 11.9375 60.1328 12.0547 60.4766 12.0703H69.2422C69.6797 12.0703 70.0469 12.2109 70.3438 12.4922C70.6562 12.7734 70.8125 13.1094 70.8125 13.5C70.8125 13.9062 70.6562 14.25 70.3438 14.5312C70.0469 14.8125 69.6797 14.9531 69.2422 14.9531H60.7578ZM70.5312 9.58594C70.5312 9.88281 70.3984 10.1406 70.1328 10.3594C69.8984 10.5625 69.6016 10.6641 69.2422 10.6641H61.5781C61.2188 10.6641 60.9141 10.5625 60.6641 10.3594C60.4141 10.1406 60.2891 9.88281 60.2891 9.58594C60.2891 9.30469 60.4141 9.05469 60.6641 8.83594C60.9141 8.63281 61.2188 8.53125 61.5781 8.53125H69.2422C69.6016 8.53125 69.9062 8.64062 70.1562 8.85938C70.4062 9.0625 70.5312 9.30469 70.5312 9.58594ZM75.125 0.75C75.5469 0.765625 75.9062 0.921875 76.2031 1.21875C76.5 1.5 76.6562 1.85156 76.6719 2.27344V13.7578C76.5781 14.6953 76.0625 15.2031 75.125 15.2812C74.6875 15.2812 74.3047 15.1406 73.9766 14.8594C73.6641 14.5625 73.5078 14.1953 73.5078 13.7578V2.27344C73.5234 1.83594 73.6875 1.47656 74 1.19531C74.3125 0.898438 74.6875 0.75 75.125 0.75ZM85.0156 15.2344C84.5938 15.2188 84.2344 15.0703 83.9375 14.7891C83.6406 14.4922 83.4844 14.1328 83.4688 13.7109V10.5469H80.7734C80.3359 10.5469 79.9609 10.3984 79.6484 10.1016C79.3516 9.78906 79.2031 9.41406 79.2031 8.97656C79.2031 8.53906 79.3594 8.17188 79.6719 7.875C79.9688 7.5625 80.3359 7.40625 80.7734 7.40625H83.4688C83.5156 6.48438 83.6719 5.59375 83.9375 4.73438C84.25 3.75 84.7578 2.92188 85.4609 2.25C86.1797 1.5625 87.0859 1.1875 88.1797 1.125H94.6953C95.1172 1.14062 95.4688 1.29688 95.75 1.59375C96.0469 1.875 96.2031 2.22656 96.2188 2.64844C96.2188 3.08594 96.0703 3.46094 95.7734 3.77344C95.4922 4.08594 95.1328 4.25 94.6953 4.26562H88.9766C88.3828 4.29688 87.8906 4.52344 87.5 4.94531C87.1094 5.36719 86.8672 5.84375 86.7734 6.375C86.6953 6.71875 86.6484 7.0625 86.6328 7.40625H94.6016C95.0391 7.40625 95.4062 7.5625 95.7031 7.875C96.0156 8.17188 96.1719 8.53906 96.1719 8.97656C96.1719 9.41406 96.0234 9.78906 95.7266 10.1016C95.4141 10.3984 95.0391 10.5469 94.6016 10.5469H86.6328V13.7109C86.6172 14.1484 86.4531 14.5156 86.1406 14.8125C85.8281 15.0938 85.4531 15.2344 85.0156 15.2344Z" fill="white"/>
</svg>
